<svg height="512pt" viewBox="-25 0 512 512.00039" width="512pt" xmlns="http://www.w3.org/2000/svg"><path d="m226.441406 97.210938h41.710938v360.835937h-41.710938zm0 0" fill="#b28e7d"/><path d="m309.847656 504.5h-133.050781c-9.382813 0-16.136719-9.003906-13.515625-18.007812 4.902344-16.855469 20.347656-28.445313 37.902344-28.445313h84.273437c17.554688 0 33 11.589844 37.90625 28.445313 2.617188 9.007812-4.136719 18.007812-13.515625 18.007812zm0 0" fill="#495059"/><path d="m437.59375 72.90625-77.445312-61.636719c-11.265626-8.964843-27.898438-.941406-27.898438 13.453125v27.3125h-177.59375c-13.371094 0-24.214844 10.839844-24.214844 24.210938v66.300781c0 13.375 10.84375 24.214844 24.214844 24.214844h177.59375v27.3125c0 14.394531 16.636719 22.417969 27.898438 13.453125l77.449218-61.632813c23.460938-18.675781 23.460938-54.316406-.003906-72.988281zm0 0" fill="#97d1c2"/><path d="m302.402344 52.035156h-147.746094c-13.371094 0-24.214844 10.839844-24.214844 24.214844v66.300781c0 13.371094 10.84375 24.214844 24.214844 24.214844h177.59375v27.308594c0 14.394531 16.636719 22.417969 27.898438 13.453125l33.738281-26.847656c-67.480469-6.714844-86.355469-79.792969-91.484375-128.644532zm0 0" fill="#73c9ba"/><path d="m25.097656 328.695312 77.445313 61.632813c11.265625 8.964844 27.902343.941406 27.902343-13.453125v-27.308594h177.589844c13.375 0 24.214844-10.84375 24.214844-24.214844v-66.300781c0-13.375-10.839844-24.214843-24.214844-24.214843h-177.59375v-27.308594c0-14.398438-16.632812-22.417969-27.898437-13.453125l-77.445313 61.632812c-23.464844 18.671875-23.464844 54.316407 0 72.988281zm0 0" fill="#7e9bde"/><path d="m130.441406 207.527344c0-14.398438-16.632812-22.417969-27.898437-13.453125l-77.445313 61.632812c-23.464844 18.671875-23.464844 54.316407 0 72.988281l77.445313 61.632813c11.265625 8.964844 27.898437.941406 27.898437-13.453125v-27.308594h101.25c-54.734375-20.730468-66.535156-74.464844-68.761718-114.730468h-32.488282zm0 0" fill="#5a7ccc"/><path d="m226.441406 166.765625h41.710938v28.527344h-41.710938zm0 0" fill="#a16f55"/><path d="m226.441406 349.5625h41.710938v28.53125h-41.710938zm0 0" fill="#a16f55"/><path d="m187.972656 101.898438c-4.140625 0-7.5 3.359374-7.5 7.5 0 4.144531 3.359375 7.5 7.5 7.5h118.644532c4.144531 0 7.5-3.355469 7.5-7.5 0-4.140626-3.355469-7.5-7.5-7.5zm260.027344-29.601563c-2.847656-3.007813-7.59375-3.144531-10.605469-.300781s-3.148437 7.589844-.300781 10.601562c7.449219 7.886719 11.273438 18.679688 10.5 29.609375-.785156 11.035157-5.992188 20.914063-14.667969 27.816407l-77.445312 61.632812c-2.984375 2.375-6.816407 2.800781-10.246094 1.148438-3.433594-1.65625-5.484375-4.921876-5.484375-8.730469v-27.3125c0-4.140625-3.355469-7.5-7.5-7.5h-177.59375c-9.214844 0-16.710938-7.496094-16.710938-16.714844v-66.296875c0-9.21875 7.496094-16.714844 16.710938-16.714844h177.59375c4.144531 0 7.5-3.359375 7.5-7.5v-27.3125c0-3.808594 2.050781-7.074218 5.484375-8.730468 3.429687-1.652344 7.261719-1.226563 10.246094 1.148437l55.054687 43.8125c3.238282 2.578125 7.957032 2.042969 10.539063-1.199219 2.578125-3.238281 2.042969-7.957031-1.199219-10.535156l-55.054688-43.816406c-7.484374-5.957032-17.488281-7.074219-26.101562-2.921875-8.617188 4.15625-13.96875 12.679687-13.96875 22.242187v19.8125h-170.09375c-17.488281 0-31.710938 14.226563-31.710938 31.714844v66.300781c0 17.484375 14.222657 31.714844 31.710938 31.714844h64.285156v53.070313h-80.996094v-19.808594c0-9.566406-5.355468-18.089844-13.96875-22.242188-8.617187-4.15625-18.621093-3.035156-26.101562 2.921875l-77.445312 61.632813c-12.984376 10.328125-20.429688 25.769531-20.429688 42.359375 0 16.589843 7.445312 32.03125 20.425781 42.363281l77.449219 61.632812c4.484375 3.570313 9.875 5.402344 15.332031 5.402344 3.644531 0 7.320313-.816406 10.769531-2.480468 8.617188-4.15625 13.96875-12.679688 13.96875-22.242188v-19.808594h80.996094v93.476563h-17.753906c-20.757812 0-39.308594 13.921875-45.109375 33.851562-1.914063 6.582031-.652344 13.5 3.460937 18.980469 4.113282 5.480469 10.40625 8.625 17.257813 8.625h7.421875c4.144531 0 7.5-3.355469 7.5-7.5s-3.355469-7.5-7.5-7.5h-7.421875c-2.089844 0-4.007813-.957031-5.261719-2.628906s-1.636718-3.777344-1.054687-5.785156c3.949219-13.566407 16.574219-23.042969 30.707031-23.042969h84.269531c14.128907 0 26.753907 9.476562 30.703125 23.042969.585938 2.007812.199219 4.113281-1.054687 5.785156-1.253907 1.671875-3.171875 2.628906-5.257813 2.628906h-89.816406c-4.140625 0-7.5 3.355469-7.5 7.5s3.359375 7.5 7.5 7.5h89.816406c6.851563 0 13.140625-3.144531 17.253906-8.625 4.117188-5.480469 5.375-12.398438 3.460938-18.980469-5.800781-19.929687-24.347656-33.851562-45.105469-33.851562h-9.804687v-93.476563h32.382812c17.488282 0 31.714844-14.226562 31.714844-31.714844v-66.300781c0-17.488281-14.226562-31.714843-31.714844-31.714843h-32.382812v-53.070313h49.097656v19.808594c0 9.566406 5.355469 18.085937 13.96875 22.242187 3.453125 1.664063 7.125 2.480469 10.769531 2.480469 5.453125 0 10.847657-1.832031 15.332031-5.402344l77.445313-61.632812c12-9.550781 19.207031-23.222657 20.289063-38.492188 1.074218-15.109375-4.234376-30.039062-14.554688-40.972656zm-214.058594 101.96875h26.710938v53.070313h-26.710938zm26.710938 276.277344h-26.710938v-93.476563h26.710938zm47.382812-208.207031c9.214844 0 16.714844 7.496093 16.714844 16.714843v66.300781c0 9.214844-7.5 16.714844-16.714844 16.714844h-177.59375c-4.140625 0-7.5 3.355469-7.5 7.5v27.308594c0 3.8125-2.050781 7.074219-5.480468 8.730469-3.4375 1.65625-7.265626 1.226562-10.25-1.144531l-77.445313-61.636719c-9.382813-7.46875-14.765625-18.628907-14.765625-30.625 0-11.996094 5.382812-23.15625 14.765625-30.625l77.445313-61.632813c2.984374-2.375 6.816406-2.800781 10.246093-1.148437 3.433594 1.65625 5.484375 4.921875 5.484375 8.734375v27.308594c0 4.144531 3.359375 7.5 7.5 7.5zm-151.960937 57.363281h118.644531c4.140625 0 7.5-3.355469 7.5-7.5 0-4.140625-3.359375-7.5-7.5-7.5h-118.644531c-4.140625 0-7.5 3.359375-7.5 7.5 0 4.144531 3.359375 7.5 7.5 7.5zm0 0"/></svg>