<svg id="Capa_1" enable-background="new 0 0 512 512" height="512" viewBox="0 0 512 512" width="512" xmlns="http://www.w3.org/2000/svg"><g><g><g><path d="m393.496 194.352c-3.307-2.134-6.908-3.93-10.778-5.149-17.757-5.595-35.276-11.143-35.276-11.143.01.017.014.025.024.042-56.055 36.646 11.321 96.656-47.4 142.866v21.508l58.268 25.5 17.949-9.925c18.02-27.723 37.746-67.537 41.583-112.987 1.696-20.087-7.431-39.784-24.37-50.712z" fill="#fb74c4"/><path d="m393.496 194.352c-3.307-2.134-6.908-3.93-10.778-5.149-7.203-2.27-14.365-4.531-20.336-6.418 9.606 17.613 13.54 46.815 12.234 62.279-3.796 44.968-23.145 84.41-41.007 112.092l24.725 10.82 17.949-9.925c18.02-27.723 37.746-67.537 41.583-112.987 1.696-20.087-7.431-39.784-24.37-50.712z" fill="#fd4eb4"/><g><g><path d="m153.405 227.794-13.076-11.676c-6.403-5.717-12.105-12.173-16.987-19.233l-15.059-21.775c-2.41-3.484-6.741-5.09-10.84-4.018l-.207.054c-5.242 1.371-8.512 6.521-7.53 11.812l7.61 40.996c1.304 7.026 6.352 12.773 13.15 14.973l6.241 2.02c5.753 1.862 11.047 4.919 15.535 8.97l8.411-1.707 11.98-12.524z" fill="#69d8e4"/><g><circle cx="405.089" cy="105.906" fill="#fcb143" r="17.379"/><path d="m407.345 140.042c0-23.564-19.102-42.667-42.667-42.667-23.564 0-42.667 19.102-42.667 42.667v10.5c0 23.564 19.103 42.667 42.667 42.667s42.667-19.103 42.667-42.667z" fill="#fff0dc"/><path d="m364.678 97.375c-7.14 0-13.865 1.763-19.779 4.864 13.602 7.132 22.888 21.379 22.888 37.803v53.042c22.111-1.594 39.558-20.024 39.558-42.542v-10.5c0-23.564-19.103-42.667-42.667-42.667z" fill="#ffe4c0"/><path d="m364.678 97.375c-19.608 0-36.116 13.232-41.109 31.25h32.291c7.816 0 14.152 6.336 14.152 14.152 0 3.447 1.258 6.774 3.537 9.359l23.295 26.421c6.535-7.497 10.501-17.29 10.501-28.016v-10.5c0-23.563-19.103-42.666-42.667-42.666z" fill="#fcb143"/><path d="m407.345 150.542v-10.5c0-23.564-19.103-42.667-42.667-42.667-7.14 0-13.865 1.763-19.779 4.864 12.087 6.337 20.747 18.298 22.531 32.406 1.621 2.302 2.581 5.103 2.581 8.132 0 3.446 1.258 6.774 3.537 9.359l23.294 26.42c6.537-7.494 10.503-17.288 10.503-28.014z" fill="#fa9801"/></g><g><path d="m347.667 249.575c10.132 5.341 22.675 1.457 28.016-8.675 5.341-10.132 1.457-22.675-8.675-28.016l-110.702-43.232c-22.482-8.78-46.219-13.923-70.319-15.237l-4.353-.237c-3.91-.213-5.365 5.045-1.9 6.872z" fill="#fff0dc"/></g></g><g><g><g><g><g><g><path d="m491.205 423.473h-470.41c-7.343 0-13.295-5.952-13.295-13.295 0-7.343 5.952-13.295 13.295-13.295h470.409c7.343 0 13.295 5.952 13.295 13.295.001 7.343-5.951 13.295-13.294 13.295z" fill="#d0f0f3"/></g></g></g></g></g></g><path d="m491.205 396.883h-26.706v26.59h26.706c7.343 0 13.295-5.952 13.295-13.295s-5.953-13.295-13.295-13.295z" fill="#a5e4ef"/></g><g><path d="m300.065 320.968-146.66-93.174-21.163 22.124 96.03 90.175c11.834 11.112 22.532 23.374 31.94 36.603 3.23 4.542 6.407 9.06 9.036 12.818 4.08 5.831 10.746 9.299 17.864 9.299h57.472s15.128-15.269 31.699-40.762l-9.457-1.102c-30.441-4.778-48.953-10.833-66.761-35.981z" fill="#0e80ac"/></g><g><path d="m366.826 356.949c-11.051-1.735-20.524-3.643-28.967-6.566-1.614 2.647-3.227 5.207-4.826 7.668-16.571 25.493-31.699 40.762-31.699 40.762h43.25s15.128-15.269 31.699-40.762z" fill="#057195"/></g></g></g><path d="m491.205 389.375h-128.411c5.609-6.923 12.542-16.113 19.777-27.243 3.677-5.657 7.191-11.455 10.447-17.234 2.032-3.609.755-8.183-2.854-10.216-3.605-2.031-8.182-.754-10.216 2.854-2.355 4.183-4.856 8.376-7.458 12.515l-4.647-.542c-27.261-4.29-42.974-9.576-57.519-27.433 24.87-22.866 24.518-48.5 22.381-71.919l11.467 6.045c13.797 7.273 30.863 2.005 38.147-11.812 7.279-13.808 1.996-30.87-11.813-38.149-.675-.357.015-.029-17.751-6.984 10.065 2.464 20.562 1.762 30.181-2.01 2.174.882 4.35 2.015 6.496 3.4 14.424 9.305 22.456 26.08 20.961 43.778-1.708 20.246-6.881 41.107-15.375 62.006-1.56 3.838.287 8.213 4.124 9.772 3.816 1.551 8.205-.266 9.772-4.124 9.063-22.302 14.59-44.639 16.426-66.393 1.954-23.149-8.604-45.155-27.563-57.501 10.454-9.2 17.069-22.664 17.069-37.652v-10.5c0-3.706-.416-7.315-1.182-10.794 17.065-6.245 21.807-28.144 9.019-40.934-11.515-11.512-31.007-9.053-39.177 5.241-5.818-2.365-12.17-3.68-18.827-3.68-27.662 0-50.166 22.505-50.166 50.167v10.5c0 13.357 5.257 25.502 13.799 34.501-.969 1.175-1.885 2.377-2.738 3.607l-66.537-25.984c-39.715-15.51-74.881-15.707-76.993-15.978-11.949-.631-16.345 15.44-5.806 20.996l31.472 16.59c3.666 1.932 8.201.527 10.132-3.138 1.932-3.664.527-8.2-3.137-10.132l-14.921-7.865c18.418 2.204 36.457 6.728 53.796 13.499l110.263 43.061c6.182 3.48 8.581 11.303 5.206 17.704-3.411 6.472-11.411 8.95-17.884 5.537l-105.411-55.567c-3.665-1.932-8.201-.528-10.132 3.138-1.932 3.664-.527 8.2 3.137 10.132l78.08 41.16c2.6 27.173 5.434 49.336-17.398 69.884l-141.494-89.892-12.622-11.27c-5.953-5.315-11.273-11.339-15.813-17.903l-15.058-21.774c-10.984-15.887-35.535-4.914-32.121 13.481l7.61 40.996c1.808 9.742 8.788 17.689 18.215 20.74 4.141 1.635 11.367 2.496 19.026 9.393l95.955 90.103c16.255 15.264 25.317 27.413 36.857 43.822h-239.2c-11.467.001-20.796 9.33-20.796 20.797s9.329 20.795 20.795 20.795h470.41c11.467 0 20.795-9.328 20.795-20.795s-9.328-20.796-20.795-20.796zm-161.693-238.841v-10.5c0-1.324.08-2.63.224-3.917h26.124c3.668 0 6.652 2.984 6.652 6.652 0 5.277 1.922 10.362 5.41 14.319l18.537 21.024c-22.869 18.102-56.947 1.841-56.947-27.578zm82.562-51.622c5.152 5.153 3.131 13.986-3.815 16.323-3.07-5.375-7.097-10.134-11.86-14.032 3.157-5.828 11.02-6.946 15.675-2.291zm-47.396 5.955c19.392 0 35.167 15.775 35.167 35.167v10.5c0 5.683-1.363 11.051-3.767 15.806l-16.905-19.172c-1.071-1.216-1.661-2.777-1.661-4.399 0-11.939-9.713-21.652-21.652-21.652h-20.803c6.255-9.762 17.191-16.25 29.621-16.25zm-251.902 126.918c-4.185-1.354-7.283-4.882-8.085-9.207l-7.61-40.996c-.543-2.923 3.441-4.517 5.035-2.212l15.059 21.774c5.213 7.539 11.324 14.457 18.16 20.562l7.286 6.506-11.133 11.639c-8.018-5.365-14.394-6.47-18.712-8.066zm162.618 153.42c-11.849-16.926-22.117-31.929-41.987-50.588l-90.512-84.992 11.68-12.21 140.243 89.098c9.045 12.457 18.792 20.995 30.574 26.804 11.031 5.438 23.173 8.258 37.818 10.644-8.389 11.866-15.826 20.626-20.11 25.415h-63.117c-1.791-1.032-3.373-2.432-4.589-4.171zm215.811 30.761h-470.41c-3.196 0-5.795-2.6-5.795-5.795 0-3.196 2.6-5.796 5.795-5.796h470.41c3.195 0 5.795 2.6 5.795 5.796 0 3.195-2.6 5.795-5.795 5.795z"/></g></svg>