<svg id="Capa_1" enable-background="new 0 0 510 510" height="512" viewBox="0 0 510 510" width="512" xmlns="http://www.w3.org/2000/svg"><g><path d="m495 160h-144c-8.284 0-15 6.716-15 15v320c0 8.284 6.716 15 15 15h144c8.284 0 15-6.716 15-15v-320c0-8.284-6.716-15-15-15z" fill="#303a6d"/><path d="m366 79v416c0 8.28-6.72 15-15 15h-89c-4.421-1.479-76.898-25.719-82.6-27.62l-75.4 27.62h-89c-8.28 0-15-6.72-15-15v-416c0-8.28 6.72-15 15-15h80c8.28 0 15 6.72 15 15h146c0-8.28 6.72-15 15-15h80c8.28 0 15 6.72 15 15z" fill="#86bfec"/><path d="m366 79v431c-22.749 0-82.442 0-104 0l-79-26.42v-404.58h73c0-8.28 6.72-15 15-15h80c8.28 0 15 6.72 15 15z" fill="#69b0e8"/><path d="m262 406.43v103.57h-79v-118.57h64c8.28 0 15 6.71 15 15z" fill="#69b0e8"/><path d="m286 15v128c0 8.28-6.72 15-15 15h-176c-8.28 0-15-6.72-15-15v-128c0-8.28 6.72-15 15-15h176c8.28 0 15 6.72 15 15z" fill="#ff6426"/><path d="m286 15v128c0 8.28-6.72 15-15 15h-88v-158h88c8.28 0 15 6.72 15 15z" fill="#cf3b00"/><path d="m262 406.43v103.57h-158v-103.57c0-8.29 6.72-15 15-15h128c8.28 0 15 6.71 15 15z" fill="#e6ffff"/><path d="m262 406.43v103.57h-79v-118.57h64c8.28 0 15 6.71 15 15z" fill="#d9f2ff"/><path d="m287 358h-64c-8.284 0-15-6.716-15-15s6.716-15 15-15h64c8.284 0 15 6.716 15 15s-6.716 15-15 15z" fill="#d9f2ff"/><path d="m143 358h-64c-8.284 0-15-6.716-15-15s6.716-15 15-15h64c8.284 0 15 6.716 15 15s-6.716 15-15 15z" fill="#e6ffff"/><path d="m287 294h-64c-8.284 0-15-6.716-15-15s6.716-15 15-15h64c8.284 0 15 6.716 15 15s-6.716 15-15 15z" fill="#d9f2ff"/><path d="m143 294h-64c-8.284 0-15-6.716-15-15s6.716-15 15-15h64c8.284 0 15 6.716 15 15s-6.716 15-15 15z" fill="#e6ffff"/><path d="m287 230h-64c-8.284 0-15-6.716-15-15s6.716-15 15-15h64c8.284 0 15 6.716 15 15s-6.716 15-15 15z" fill="#d9f2ff"/><path d="m143 230h-64c-8.284 0-15-6.716-15-15s6.716-15 15-15h64c8.284 0 15 6.716 15 15s-6.716 15-15 15z" fill="#e6ffff"/><g fill="#d9f2ff"><path d="m415 254c-8.219 0-15-6.709-15-15 0-8.85 7.722-15.819 16.48-14.92 7.968.665 14.305 8.065 13.45 16.399-.821 7.918-7.451 13.521-14.93 13.521z"/><path d="m404.39 313.609c-8.907-8.938-3.497-24.204 9.13-25.54 8.612-.875 16.48 5.932 16.48 14.931 0 13.277-15.947 20.017-25.61 10.609z"/><path d="m415 382c-8.215 0-15-6.706-15-15 0-8.967 7.842-15.809 16.48-14.931 7.99.845 14.172 7.729 13.45 16.4-.796 7.831-7.366 13.531-14.93 13.531z"/><path d="m415 446c-12.691 0-19.553-14.742-11.6-24.511 5.151-6.311 14.601-7.394 21.11-2.09 10.849 8.869 4.55 26.601-9.51 26.601z"/></g><path d="m222 79c0 8.28-6.72 15-15 15h-48c-8.28 0-15-6.72-15-15s6.72-15 15-15h48c8.28 0 15 6.72 15 15z" fill="#e6ffff"/><path d="m222 79c0 8.28-6.72 15-15 15h-24v-30h24c8.28 0 15 6.72 15 15z" fill="#d9f2ff"/></g></svg>